HIERARCHY
ROOT hip
{
  OFFSET 0 0 0
  CHANNELS 6 Xposition Yposition Zposition Zrotation Yrotation Xrotation
  JOINT abdomen
  {
    OFFSET 0 20.6881 -0.73152
    CHANNELS 3 Zrotation Xrotation Yrotation
    JOINT chest
    {
      OFFSET 0 11.7043 -0.48768
      CHANNELS 3 Zrotation Xrotation Yrotation
      JOINT neck
      {
        OFFSET 0 22.1894 -2.19456
        CHANNELS 3 Zrotation Xrotation Yrotation
        JOINT head
        {
          OFFSET -0.24384 7.07133 1.2192
          CHANNELS 3 Zrotation Xrotation Yrotation
          JOINT leftEye
          {
            OFFSET 4.14528 8.04674 8.04672
            CHANNELS 3 Zrotation Xrotation Yrotation
            End Site
            {
              OFFSET 1 0 0
            }
          }
          JOINT rightEye
          {
            OFFSET -3.6576 8.04674 8.04672
            CHANNELS 3 Zrotation Xrotation Yrotation
            End Site
            {
              OFFSET 1 0 0
            }
          }
        }
      }
      JOINT rCollar
      {
        OFFSET -2.68224 19.2634 -4.8768
        CHANNELS 3 Zrotation Xrotation Yrotation
        JOINT rShldr
        {
          OFFSET -8.77824 -1.95073 1.46304
          CHANNELS 3 Zrotation Xrotation Yrotation
          JOINT rForeArm
          {
            OFFSET -28.1742 -1.7115 0.48768
            CHANNELS 3 Zrotation Xrotation Yrotation
            JOINT rHand
            {
              OFFSET -22.5879 0.773209 7.07136
              CHANNELS 3 Zrotation Xrotation Yrotation
              JOINT rThumb1
              {
                OFFSET -1.2192 -0.487915 3.41376
                CHANNELS 3 Zrotation Xrotation Yrotation
                JOINT rThumb2
                {
                  OFFSET -3.37035 -0.52449 3.41376
                  CHANNELS 3 Zrotation Xrotation Yrotation
                  End Site
                  {
                    OFFSET -1.78271 -1.18214 1.43049
                  }
                }
              }
              JOINT rIndex1
              {
                OFFSET -7.75947 0.938293 5.60832
                CHANNELS 3 Zrotation Xrotation Yrotation
                JOINT rIndex2
                {
                  OFFSET -2.54057 -0.884171 1.56538
                  CHANNELS 3 Zrotation Xrotation Yrotation
                  End Site
                  {
                    OFFSET -1.62519 -0.234802 1.16502
                  }
                }
              }
              JOINT rMid1
              {
                OFFSET -8.24714 1.18213 3.41376
                CHANNELS 3 Zrotation Xrotation Yrotation
                JOINT rMid2
                {
                  OFFSET -3.10165 -0.590103 1.0647
                  CHANNELS 3 Zrotation Xrotation Yrotation
                  End Site
                  {
                    OFFSET -2.48547 -0.328903 0.83742
                  }
                }
              }
              JOINT rRing1
              {
                OFFSET -8.82822 0.546677 1.51678
                CHANNELS 3 Zrotation Xrotation Yrotation
                JOINT rRing2
                {
                  OFFSET -2.60934 -0.819778 -0.0198488
                  CHANNELS 3 Zrotation Xrotation Yrotation
                  End Site
                  {
                    OFFSET -2.33842 -0.294052 0.168128
                  }
                }
              }
              JOINT rPinky1
              {
                OFFSET -8.27202 -0.0477905 -0.4584
                CHANNELS 3 Zrotation Xrotation Yrotation
                JOINT rPinky2
                {
                  OFFSET -1.82734 -0.647385 -0.700984
                  CHANNELS 3 Zrotation Xrotation Yrotation
                  End Site
                  {
                    OFFSET -1.69225 -0.51767 -0.607171
                  }
                }
              }
            }
          }
        }
      }
      JOINT lCollar
      {
        OFFSET 2.68224 19.2634 -4.8768
        CHANNELS 3 Zrotation Xrotation Yrotation
        JOINT lShldr
        {
          OFFSET 8.77824 -1.95073 1.46304
          CHANNELS 3 Zrotation Xrotation Yrotation
          JOINT lForeArm
          {
            OFFSET 28.1742 -1.7115 0.48768
            CHANNELS 3 Zrotation Xrotation Yrotation
            JOINT lHand
            {
              OFFSET 22.5879 0.773209 7.07136
              CHANNELS 3 Zrotation Xrotation Yrotation
              JOINT lThumb1
              {
                OFFSET 1.2192 -0.487915 3.41376
                CHANNELS 3 Zrotation Xrotation Yrotation
                JOINT lThumb2
                {
                  OFFSET 3.37035 -0.52449 3.41376
                  CHANNELS 3 Zrotation Xrotation Yrotation
                  End Site
                  {
                    OFFSET 1.78271 -1.18214 1.43049
                  }
                }
              }
              JOINT lIndex1
              {
                OFFSET 7.75947 0.938293 5.60832
                CHANNELS 3 Zrotation Xrotation Yrotation
                JOINT lIndex2
                {
                  OFFSET 2.54057 -0.884171 1.56538
                  CHANNELS 3 Zrotation Xrotation Yrotation
                  End Site
                  {
                    OFFSET 1.62519 -0.234802 1.16502
                  }
                }
              }
              JOINT lMid1
              {
                OFFSET 8.24714 1.18213 3.41376
                CHANNELS 3 Zrotation Xrotation Yrotation
                JOINT lMid2
                {
                  OFFSET 3.10165 -0.590103 1.0647
                  CHANNELS 3 Zrotation Xrotation Yrotation
                  End Site
                  {
                    OFFSET 2.48547 -0.328903 0.83742
                  }
                }
              }
              JOINT lRing1
              {
                OFFSET 8.82822 0.546677 1.51678
                CHANNELS 3 Zrotation Xrotation Yrotation
                JOINT lRing2
                {
                  OFFSET 2.60934 -0.819778 -0.0198488
                  CHANNELS 3 Zrotation Xrotation Yrotation
                  End Site
                  {
                    OFFSET 2.33842 -0.294052 0.168128
                  }
                }
              }
              JOINT lPinky1
              {
                OFFSET 8.27202 -0.0477905 -0.4584
                CHANNELS 3 Zrotation Xrotation Yrotation
                JOINT lPinky2
                {
                  OFFSET 1.82734 -0.647385 -0.700984
                  CHANNELS 3 Zrotation Xrotation Yrotation
                  End Site
                  {
                    OFFSET 1.69225 -0.51767 -0.607171
                  }
                }
              }
            }
          }
        }
      }
    }
  }
  JOINT rButtock
  {
    OFFSET -8.77824 4.35084 1.2192
    CHANNELS 3 Zrotation Xrotation Yrotation
    JOINT rThigh
    {
      OFFSET 0 -1.70687 -2.19456
      CHANNELS 3 Zrotation Xrotation Yrotation
      JOINT rShin
      {
        OFFSET 0 -36.8199 0.73152
        CHANNELS 3 Zrotation Xrotation Yrotation
        JOINT rFoot
        {
          OFFSET 0.73152 -45.1104 -5.12064
          CHANNELS 3 Zrotation Xrotation Yrotation
          End Site
          {
            OFFSET -1.1221 -3.69964 12.103
          }
        }
      }
    }
  }
  JOINT lButtock
  {
    OFFSET 8.77824 4.35084 1.2192
    CHANNELS 3 Zrotation Xrotation Yrotation
    JOINT lThigh
    {
      OFFSET 0 -1.70687 -2.19456
      CHANNELS 3 Zrotation Xrotation Yrotation
      JOINT lShin
      {
        OFFSET 0 -36.8199 0.73152
        CHANNELS 3 Zrotation Xrotation Yrotation
        JOINT lFoot
        {
          OFFSET -0.73152 -45.1104 -5.12064
          CHANNELS 3 Zrotation Xrotation Yrotation
          End Site
          {
            OFFSET 1.1221 -3.69964 12.103
          }
        }
      }
    }
  }
}
MOTION
Frames:	4
Frame Time:	0.03333
0.5969999948418105 68.46059797568192 -1.7743000119221917 116.77900695800781 78.50631713867188 128.93199157714844 -2.516619920730591 20.592498779296875 9.900628089904785 -6.455699920654297 -10.774002075195312 2.220649480819702 0.27355700731277466 13.930801391601562 11.70479965209961 -4.299619674682617 -27.76970100402832 22.280498504638672 -0.0 0.0 -0.0 -0.0 0.0 -0.0 4.250520020589871e-13 1.3670500278659126e-12 -2.3521199636437895e-13 49.36610412597656 48.17680358886719 -5.139889717102051 -28.106199264526367 -39.81259536743164 83.58639526367188 -0.10961700230836868 9.400171279907227 1.3332101106643677 4.280400034417653e-09 -6.3464797861456645e-09 -5.557269755485095e-09 7.3689396806742025e-09 -1.0927399429760953e-08 -9.63622959204713e-09 4.280400034417653e-09 -6.346459802131221e-09 -5.557290183588748e-09 7.730909824371338 5.474879741668701 0.4173140823841095 4.280400034417653e-09 -6.346490000197491e-09 -5.557269755485095e-09 2.9055399894714355 0.9651829600334167 0.10290199518203735 4.28040980438027e-09 -6.346490000197491e-09 -5.557269755485095e-09 10.27859878540039 0.73180091381073 0.025912316516041756 4.280400034417653e-09 -6.3464797861456645e-09 -5.557259985522478e-09 2.221669912338257 -0.733487069606781 -0.208919957280159 4.2492997510447383e-13 1.3670400532059257e-12 -2.3541100167313866e-13 -52.69729995727539 19.095102310180664 -25.817596435546875 25.65939712524414 -46.90330123901367 -97.49760437011719 2.1143298149108887 -37.58029556274414 6.208919048309326 3.397139902716617e-09 -1.319660047904847e-09 -2.5988300400570097e-10 5.896519716941384e-09 -2.2512600672541794e-09 -3.8281797176686894e-10 3.3971299107093955e-09 -1.319660047904847e-09 -2.5987997864795886e-10 -7.730909824371338 5.474879741668701 -0.4173140823841095 3.397139902716617e-09 -1.319660047904847e-09 -2.5988899921003394e-10 -2.9055399894714355 0.9651829600334167 -0.10290199518203735 3.3971299107093955e-09 -1.319660047904847e-09 -2.598820048049788e-10 -10.27859878540039 0.73180091381073 -0.025912316516041756 3.397139902716617e-09 -1.319649944875323e-09 -2.5988300400570097e-10 -2.221669912338257 -0.733487069606781 0.208919957280159 -2.0321699480147914e-16 0.0 -3.8825099822884138e-19 -41.631500244140625 -54.37639617919922 -51.98689651489258 -101.79199981689453 88.87882232666016 101.99198913574219 1.4453999996185303 -6.05081033706665 7.816619396209717 2.0321699480147914e-16 0.0 3.8825099822884138e-19 1.1678701639175415 -59.508201599121094 15.419699668884277 2.9048993587493896 74.19920349121094 -3.179029703140259 -0.5968909859657288 -0.4101790189743042 -15.989799499511719
1.1775000135570157 69.58580333954983 -3.3880999698591925 112.34200286865234 75.6139144897461 122.8320083618164 -4.523769855499268 22.088397979736328 9.988999366760254 -6.477640151977539 -10.343602180480957 2.1619997024536133 0.1661210060119629 13.712902069091797 11.426400184631348 -4.568300247192383 -27.608701705932617 21.687801361083984 -0.0 0.0 -0.0 -0.0 0.0 -0.0 9.649309210815402e-14 2.0091899335678703e-13 -4.5111698122705934e-13 51.3588981628418 46.98570251464844 -7.531079292297363 -28.071998596191406 -40.016502380371094 83.95109558105469 -0.09426821023225784 8.72412109375 1.2357598543167114 2.9747497798382483e-09 -4.514999929483565e-09 -2.4324997571767426e-09 5.131709723826816e-09 -7.792859690880505e-09 -4.227460159711427e-09 2.9747400098756316e-09 -4.514979501379912e-09 -2.432519741191186e-09 7.730909824371338 5.474879741668701 0.4173140823841095 2.9747400098756316e-09 -4.514999929483565e-09 -2.4324997571767426e-09 2.9055399894714355 0.9651829600334167 0.10290199518203735 2.9747497798382483e-09 -4.514999929483565e-09 -2.4324997571767426e-09 10.27859878540039 0.73180091381073 0.025912316516041756 2.9747400098756316e-09 -4.514999929483565e-09 -2.432489765169521e-09 2.221669912338257 -0.733487069606781 -0.208919957280159 9.640580028074178e-14 2.009109838132378e-13 -4.5130595766572357e-13 -52.60809326171875 19.305198669433594 -24.903499603271484 25.56519889831543 -47.04420471191406 -97.85128784179688 2.2998600006103516 -38.89899826049805 6.510200023651123 3.2426799023710373e-09 -6.221140269602188e-10 1.0528899974104888e-09 5.579989803550234e-09 -1.0296099528517288e-09 1.8915298216626297e-09 3.2426699103638157e-09 -6.221159698505119e-10 1.052899878395408e-09 -7.730909824371338 5.474879741668701 -0.4173140823841095 3.2426799023710373e-09 -6.221189674526784e-10 1.0528899974104888e-09 -2.9055399894714355 0.9651829600334167 -0.10290199518203735 3.2426699103638157e-09 -6.22116969051234e-10 1.0528899974104888e-09 -10.27859878540039 0.73180091381073 -0.025912316516041756 3.242689894378259e-09 -6.221130277594966e-10 1.0528899974104888e-09 -2.221669912338257 -0.733487069606781 0.208919957280159 -2.0321699480147914e-16 0.0 -3.8825099822884138e-19 -35.73979949951172 -51.7406005859375 -45.63209915161133 -9.955909729003906 84.27422332763672 10.165700912475586 1.6534700393676758 -3.7308502197265625 11.123800277709961 2.0321699480147914e-16 0.0 3.8825099822884138e-19 0.9887969493865967 -59.4884033203125 15.946698188781738 4.344429969787598 78.47500610351562 -4.643059730529785 -0.146061971783638 1.7281800508499146 -17.84630012512207
1.412200014353625 70.53060291687018 -4.886099940112445 110.01599884033203 72.79501342773438 118.56697845458984 -6.594670295715332 23.725698471069336 10.233599662780762 -6.408499717712402 -9.959830284118652 2.1399497985839844 0.008578750304877758 13.486899375915527 11.137999534606934 -4.764930248260498 -27.384403228759766 21.09510040283203 -0.0 0.0 -0.0 -0.0 0.0 -0.0 -2.826490127019743e-13 -1.155329954968809e-12 -5.374139718308801e-13 53.03479766845703 45.87910842895508 -9.771673202514648 -28.025299072265625 -40.27909851074219 84.423095703125 -0.08559639006853104 8.316980361938477 1.177240014076233 9.030439174217975e-10 -1.5399199693177934e-09 1.3563599132737636e-09 1.5733800928785513e-09 -2.686330047296792e-09 2.3358697198716527e-09 9.030359793271714e-10 -1.5399098662882693e-09 1.3563500322888444e-09 7.730909824371338 5.474879741668701 0.4173140823841095 9.030379777286157e-10 -1.5399098662882693e-09 1.3563599132737636e-09 2.9055399894714355 0.9651829600334167 0.10290199518203735 9.030539649401703e-10 -1.5399098662882693e-09 1.3563599132737636e-09 10.27859878540039 0.73180091381073 0.025912316516041756 9.030429182210753e-10 -1.5399098662882693e-09 1.3563700163032877e-09 2.221669912338257 -0.733487069606781 -0.208919957280159 -2.8271300773520525e-13 -1.1553399296287958e-12 -5.376129771396398e-13 -52.36469650268555 19.034299850463867 -24.09339714050293 25.69439697265625 -46.840904235839844 -97.360595703125 2.46340012550354 -39.973594665527344 6.766160011291504 1.9834398568008282e-09 3.015359906211046e-10 2.0126900146522075e-09 3.3623697159868016e-09 5.663329805116746e-10 3.530099768056516e-09 1.9834300868382115e-09 3.0153399221966026e-10 2.012700006659429e-09 -7.730909824371338 5.474879741668701 -0.4173140823841095 1.9834398568008282e-09 3.0152902397162507e-10 2.0126900146522075e-09 -2.9055399894714355 0.9651829600334167 -0.10290199518203735 1.9834300868382115e-09 3.0152902397162507e-10 2.0126900146522075e-09 -10.27859878540039 0.73180091381073 -0.025912316516041756 1.9834500708526548e-09 3.015330207745137e-10 2.012680022644986e-09 -2.221669912338257 -0.733487069606781 0.208919957280159 -2.0321699480147914e-16 0.0 -3.8825099822884138e-19 -29.86659812927246 -48.31549072265625 -37.88729476928711 -3.968979597091675 77.56378936767578 4.259890079498291 1.299069881439209 -3.0156402587890625 10.303298950195312 2.0321699480147914e-16 0.0 3.8825099822884138e-19 3.2559802532196045 -60.074607849121094 17.540298461914062 10.016599655151367 84.43354797363281 -10.40259838104248 -0.15780100226402283 2.2704598903656006 -17.307098388671875
1.64170002671646 71.4821985324147 -6.1716999169202245 107.78298950195312 70.4421157836914 114.5580062866211 -8.467329978942871 25.039203643798828 10.890798568725586 -6.544370174407959 -9.562451362609863 2.2214603424072266 -0.14439399540424347 13.298200607299805 10.810699462890625 -4.824069976806641 -27.09690284729004 20.4507999420166 -0.0 0.0 -0.0 -0.0 0.0 -0.0 -2.2560699510822124e-13 -1.1236699504896253e-12 -1.418049976487784e-13 54.011600494384766 45.04819107055664 -11.650999069213867 -27.959096908569336 -40.634605407714844 85.05909729003906 -0.08697469532489777 8.36721134185791 1.1845098733901978 1.6819799997236373e-09 -3.0866498246240326e-09 -6.35437980012199e-10 2.9029498804789e-09 -5.340319741975463e-09 -1.111709946322037e-09 1.6819898807085565e-09 -3.0866498246240326e-09 -6.354499149097137e-10 7.730909824371338 5.474879741668701 0.4173140823841095 1.6819799997236373e-09 -3.0866498246240326e-09 -6.354409776143655e-10 2.9055399894714355 0.9651829600334167 0.10290199518203735 1.6819999837380806e-09 -3.0866498246240326e-09 -6.354369808114768e-10 10.27859878540039 0.73180091381073 0.025912316516041756 1.6819799997236373e-09 -3.0866498246240326e-09 -6.354280435161286e-10 2.221669912338257 -0.733487069606781 -0.208919957280159 -2.257450004922515e-13 -1.1236900082298162e-12 -1.420629971082485e-13 -51.96009063720703 17.848602294921875 -23.4872989654541 26.118499755859375 -46.01029968261719 -95.6198959350586 2.1922099590301514 -38.18159866333008 6.341609954833984 -2.6036600653256414e-10 4.523769969733138e-10 7.093869380803142e-10 -4.729309721618336e-10 7.831090220733472e-10 1.215329947790167e-09 -2.6037599853978577e-10 4.523750263274451e-10 7.093990395112826e-10 -7.730909824371338 5.474879741668701 -0.4173140823841095 -2.6036800493400847e-10 4.5237197321412737e-10 7.093869380803142e-10 -2.9055399894714355 0.9651829600334167 -0.10290199518203735 -2.6037699774050793e-10 4.5237000256825866e-10 7.093879927921876e-10 -10.27859878540039 0.73180091381073 -0.025912316516041756 -2.603609827733777e-10 4.5237297241484953e-10 7.093849396788698e-10 -2.221669912338257 -0.733487069606781 0.208919957280159 -2.0321699480147914e-16 0.0 -3.8825099822884138e-19 -24.277002334594727 -44.585201263427734 -29.452301025390625 -2.441350221633911 72.20490264892578 2.8959801197052 -0.2524130344390869 -7.248261451721191 0.579364001750946 2.0321699480147914e-16 0.0 3.8825099822884138e-19 8.682290077209473 -61.73539733886719 20.260299682617188 156.54698181152344 87.23296356201172 -157.04800415039062 -0.16029298305511475 3.1528403759002686 -16.298202514648438
